<svg id="Layer_1_1_" enable-background="new 0 0 64 64" height="512" viewBox="0 0 64 64" width="512" xmlns="http://www.w3.org/2000/svg"><path d="m46 43-9-2v-5.21c-1.501.768-3.198 1.21-5 1.21s-3.499-.442-5-1.21v5.21l-9 2c-3.314 0-6 2.686-6 6v12h3 34 3v-12c0-3.314-2.686-6-6-6z" fill="#fce0b9"/><path d="m51.475 31h-5.975c-2.209 0-4 1.791-4 4v1c0 2.209 1.791 4 4 4 1.381 0 2.5 1.119 2.5 2.5v7.5h9v-13.475c0-3.052-2.473-5.525-5.525-5.525z" fill="#d0382a"/><path d="m17 22.5c0 1.381 1.119 2.5 2.5 2.5h1.5v-5h-1.5c-1.381 0-2.5 1.119-2.5 2.5z" fill="#fce0b9"/><path d="m4 52h8v-3-3h-8z" fill="#fff"/><g fill="#fce0b9"><path d="m4 52h8v9h-8z"/><path d="m41.095 12.785c-1.066-2.666-4.349-3.628-6.685-1.959-1.458 1.042-3.401 1.102-4.921.152l-.437-.273c-2.517-1.573-5.838-.273-6.619 2.59l-1.433 6.705v5 1c0 6.075 4.925 11 11 11s11-4.925 11-11v-1-5z"/><path d="m44.5 25c1.381 0 2.5-1.119 2.5-2.5s-1.119-2.5-2.5-2.5h-1.5v5z"/><path d="m49 56h7v5h-7z"/></g><path d="m49 50h7v6h-7z" fill="#fff"/><path d="m29.052 10.705.437.273c1.52.95 3.462.89 4.921-.152 2.336-1.669 5.619-.707 6.685 1.959l1.905 7.215-.417-9.976c-.803-5.085-6.178-8.054-10.91-6.026l-4.673 2.002c-3.866 0-7 3.134-7 7l1 7 1.433-6.705c.781-2.863 4.102-4.163 6.619-2.59z" fill="#2b2210"/><path d="m15 27h-6.475c-3.052 0-5.525 2.473-5.525 5.525v13.475h9v-7.5c0-1.381 1.119-2.5 2.5-2.5h.5c2.209 0 4-1.791 4-4v-1c0-2.209-1.791-4-4-4z" fill="#d0382a"/><path d="m51 49v-7.5c0-1.381-1.119-2.5-2.5-2.5-2.209 0-4-1.791-4-4v-1c0-1.202.541-2.267 1.38-3h-.38c-2.209 0-4 1.791-4 4v1c0 2.209 1.791 4 4 4 1.381 0 2.5 1.119 2.5 2.5v7.5h9v-1z" fill="#b33024"/><path d="m52.5 42h-2c-.828 0-1.5-.672-1.5-1.5 0-.828.672-1.5 1.5-1.5h2c.828 0 1.5.672 1.5 1.5 0 .828-.672 1.5-1.5 1.5z" fill="#b33024"/><path d="m15 27h-3c2.209 0 4 1.791 4 4v1c0 2.209-1.791 3-4 3h-4.5c-2.509 0-2.509 4 0 4h1.5v7h3v-7.5c0-1.381 1.119-2.5 2.5-2.5h.5c2.209 0 4-1.791 4-4v-1c0-2.209-1.791-4-4-4z" fill="#b33024"/><path d="m27 8 4.673-2.003c4.732-2.028 10.107.941 10.91 6.026l.318 7.6.099.377-.417-9.976c-.803-5.085-6.178-8.054-10.91-6.026l-4.673 2.002c-3.866 0-7 3.134-7 7l.112.786c.576-3.286 3.437-5.786 6.888-5.786z" fill="#45361a"/><path d="m27 24.75c-.965 0-1.75-.785-1.75-1.75s.785-1.75 1.75-1.75 1.75.785 1.75 1.75-.785 1.75-1.75 1.75zm0-2c-.138 0-.25.112-.25.25 0 .275.5.275.5 0 0-.138-.112-.25-.25-.25z"/><path d="m37 24.75c-.965 0-1.75-.785-1.75-1.75s.785-1.75 1.75-1.75 1.75.785 1.75 1.75-.785 1.75-1.75 1.75zm0-2c-.138 0-.25.112-.25.25 0 .275.5.275.5 0 0-.138-.112-.25-.25-.25z"/><path d="m33.984 32.75h-3.968c-.974 0-1.766-.792-1.766-1.766h1.5c0 .147.119.266.266.266h3.968c.147 0 .266-.119.266-.266h1.5c0 .974-.792 1.766-1.766 1.766z"/><path d="m3 47v5 9c0 .552.448 1 1 1h8 37 7c.552 0 1-.448 1-1v-5-5c.552 0 1-.448 1-1v-13.476c0-3.597-2.927-6.524-6.524-6.524h-5.976c-.892 0-1.718.254-2.444.665.608-1.435.944-3.011.944-4.665h.5c1.93 0 3.5-1.57 3.5-3.5s-1.57-3.5-3.5-3.5h-.541l-.377-9.018c-.001-.038-.005-.076-.011-.114-.431-2.73-2.066-5.063-4.486-6.4-2.419-1.337-5.265-1.479-7.806-.39l-4.49 1.924c-4.314.113-7.789 3.658-7.789 7.998 0 .047.003.095.01.142l.837 5.858h-.347c-1.93 0-3.5 1.57-3.5 3.5s1.57 3.5 3.5 3.5h.5c0 4.43 2.419 8.297 6 10.376v3.821l-8.114 1.803c-1.912.031-3.639.832-4.886 2.106v-5.606c0-.827.673-1.5 1.5-1.5h.5c2.757 0 5-2.243 5-5v-1c0-2.757-2.243-5-5-5h-6.476c-3.597 0-6.524 2.927-6.524 6.524v13.476c0 .552.448 1 1 1zm8 0v2 2h-6v-4zm-6 6h6v7h-6zm45 7v-3h5v3zm5-5h-5v-4h5zm-9.5-23h5.976c2.494 0 4.524 2.03 4.524 4.524v12.476h-7v-6.5c0-.539-.133-1.044-.351-1.5h2.351v-2h-5v.051c-.165-.024-.329-.051-.5-.051-1.654 0-3-1.346-3-3v-1c0-1.654 1.346-3 3-3zm0 9c.68 0 1.25.458 1.433 1.08-.271-.036-.543-.075-.819-.079l-8.114-1.803v-3.821c.941-.546 1.804-1.211 2.561-1.983-.024.2-.061.398-.061.606v1c0 2.757 2.243 5 5 5zm.5-18.5c0 .827-.673 1.5-1.5 1.5h-.5v-3h.5c.827 0 1.5.673 1.5 1.5zm-19-15.5c.135 0 .27-.027.394-.081l4.672-2.002c1.97-.842 4.176-.733 6.051.302 1.859 1.027 3.121 2.813 3.468 4.906l.064 1.529c-.695-1.174-1.804-2.042-3.14-2.433-1.609-.471-3.316-.183-4.682.792-1.133.81-2.628.856-3.81.117l-.437-.273c-1.47-.918-3.238-1.084-4.855-.452-1.615.632-2.803 1.954-3.272 3.681l-.259 1.212-.194-1.366c.037-3.277 2.714-5.932 6-5.932zm-7.5 17c-.827 0-1.5-.673-1.5-1.5s.673-1.5 1.5-1.5h.5v3zm2.5 2v-5.894l1.397-6.548c.288-1.057 1.038-1.892 2.058-2.291 1.019-.399 2.137-.295 3.066.286l.437.273c1.869 1.168 4.238 1.096 6.032-.186.862-.617 1.939-.799 2.957-.5.999.292 1.796 1.006 2.197 1.963l1.856 7.027v5.87c0 5.514-4.486 10-10 10s-10-4.486-10-10zm-4 18c.073 0 .146-.008.217-.024l9-2c.457-.101.783-.507.783-.976v-3.7c1.253.445 2.596.7 4 .7s2.747-.255 4-.7v3.7c0 .469.326.875.783.976l9 2c.071.016.144.024.217.024.34 0 .672.044 1 .111v5.889c0 .552.448 1 1 1v5 4h-3v-6h-2v6h-10v-4h-2v4h-10v-6h-2v6h-6v-8-3c0-2.757 2.243-5 5-5zm-14-11.476c0-2.494 2.03-4.524 4.524-4.524h6.476c1.654 0 3 1.346 3 3v1c0 1.654-1.346 3-3 3h-.5c-.171 0-.335.027-.5.051v-.051h-5v2h2.351c-.218.456-.351.961-.351 1.5v6.5h-7z"/><path d="m29.293 47.707 1.414-1.414-2-2c-.187-.188-.442-.293-.707-.293h-8v2h7.586z"/><path d="m36.414 46h7.586v-2h-8c-.265 0-.52.105-.707.293l-2 2 1.414 1.414z"/></svg>